HIERARCHY
ROOT Hips
{
  OFFSET 13.6774 106.653 -34.4427
  CHANNELS 6 Xposition Yposition Zposition Zrotation Xrotation Yrotation
  JOINT ToSpine
  {
    OFFSET -2.69724 7.43032 -0.144315
    CHANNELS 3 Zrotation Xrotation Yrotation
    JOINT Spine
    {
      OFFSET -0.0310711 10.7595 1.96963
      CHANNELS 3 Zrotation Xrotation Yrotation
      JOINT Spine1
      {
        OFFSET 19.9056 3.91189 0.764692
        CHANNELS 3 Zrotation Xrotation Yrotation
        JOINT Neck
        {
          OFFSET 25.9749 7.03908 -0.130764
          CHANNELS 3 Zrotation Xrotation Yrotation
          JOINT Head
          {
            OFFSET 9.52751 0.295786 -0.907742
            CHANNELS 3 Zrotation Xrotation Yrotation
            End Site
            {
              OFFSET 16.4037 0.713936 2.7358
            }
          }
        }
        JOINT LeftShoulder
        {
          OFFSET 17.7449 4.33886 11.7777
          CHANNELS 3 Zrotation Xrotation Yrotation
          JOINT LeftArm
          {
            OFFSET 0.911315 1.27913 9.80584
            CHANNELS 3 Zrotation Xrotation Yrotation
            JOINT LeftForeArm
            {
              OFFSET 28.6126 1.18197 -3.53199
              CHANNELS 3 Zrotation Xrotation Yrotation
              JOINT LeftHand
              {
                OFFSET 27.5088 0.0218783 0.327423
                CHANNELS 3 Zrotation Xrotation Yrotation
                End Site
                {
                  OFFSET 18.6038 -0.000155887 0.382096
                }
              }
            }
          }
        }
        JOINT RightShoulder
        {
          OFFSET 17.1009 2.89543 -12.2328
          CHANNELS 3 Zrotation Xrotation Yrotation
          JOINT RightArm
          {
            OFFSET 1.4228 0.178766 -10.211
            CHANNELS 3 Zrotation Xrotation Yrotation
            JOINT RightForeArm
            {
              OFFSET 28.733 1.87905 2.64907
              CHANNELS 3 Zrotation Xrotation Yrotation
              JOINT RightHand
              {
                OFFSET 27.4588 0.290562 -0.101845
                CHANNELS 3 Zrotation Xrotation Yrotation
                End Site
                {
                  OFFSET 17.8396 -0.255518 -0.000602873
                }
              }
            }
          }
        }
      }
    }
  }
  JOINT LeftUpLeg
  {
    OFFSET -5.61296 -2.22332 -10.2353
    CHANNELS 3 Zrotation Xrotation Yrotation
    JOINT LeftLeg
    {
      OFFSET 2.56703 -44.7417 -7.93097
      CHANNELS 3 Zrotation Xrotation Yrotation
      JOINT LeftFoot
      {
        OFFSET 3.16933 -46.5642 -3.96578
        CHANNELS 3 Zrotation Xrotation Yrotation
        JOINT LeftToeBase
        {
          OFFSET 0.346054 -6.02161 12.8035
          CHANNELS 3 Zrotation Xrotation Yrotation
          End Site
          {
            OFFSET 0.134235 -1.35082 5.13018
          }
        }
      }
    }
  }
  JOINT RightUpLeg
  {
    OFFSET -5.7928 -1.72406 10.6446
    CHANNELS 3 Zrotation Xrotation Yrotation
    JOINT RightLeg
    {
      OFFSET -2.57161 -44.7178 -7.85259
      CHANNELS 3 Zrotation Xrotation Yrotation
      JOINT RightFoot
      {
        OFFSET -3.10148 -46.5936 -4.03391
        CHANNELS 3 Zrotation Xrotation Yrotation
        JOINT RightToeBase
        {
          OFFSET -0.0828122 -6.13587 12.8035
          CHANNELS 3 Zrotation Xrotation Yrotation
          End Site
          {
            OFFSET -0.131328 -1.35082 5.13018
          }
        }
      }
    }
  }
}
MOTION
Frames: 19
Frame Time: 0.03333333333333333
0.0000 93.1000 0.0000 -49.4036 -63.8075 -140.5486 -71.6010 1.5082 88.1065 73.9176 72.0490 18.5165 3.1281 22.6867 -0.1647 -138.8306 20.2052 -176.6403 -153.8447 57.1362 -178.7421 -0.8366 -19.9872 -29.7479 -120.8686 19.9112 -96.4398 15.5571 6.4481 -68.9996 0.5043 -0.2162 -0.7591 -1.8043 8.5246 35.1447 -51.4172 -25.8056 157.1775 12.5742 3.8914 105.5922 0.5979 0.3122 0.0145 -27.2877 19.9025 103.8965 -3.5089 52.7073 -3.6854 -0.2222 -0.2403 -1.3603 2.4364 -8.1174 0.0202 -61.3555 -9.2838 68.9177 -0.4270 41.1970 -9.2914 -18.6074 -4.5379 2.7193 4.8798 -31.0444 0.4136 
0.0000 93.1000 0.0000 -56.8288 -56.9609 -148.4367 -71.3877 -1.2971 87.7237 80.6777 71.0919 14.9695 3.6549 21.7166 -3.2053 -136.9865 19.1226 -173.7778 -148.5362 54.7915 177.4420 -2.7550 -19.4045 -31.4233 -124.0110 12.1700 -92.6310 13.7987 6.2988 -66.6224 0.3535 0.6075 0.7953 -3.2974 8.5357 35.6589 -51.3591 -22.4837 155.3807 12.7563 4.2430 105.6270 -0.3698 -0.5622 -0.5049 -28.0983 17.3056 93.3025 -4.7962 49.3266 -11.2013 -3.4091 -3.4745 0.1007 4.7372 -12.5373 2.0328 -58.9975 -9.6055 74.6633 1.6615 42.9164 1.5571 -13.9051 -7.0489 -0.9478 1.3912 -31.5782 -14.0094 
0.0000 93.1000 0.0000 -62.9411 -51.9115 -154.4661 -71.3358 -1.1130 87.7159 78.8068 70.7093 16.1689 5.3970 21.8002 -3.2905 -135.9715 18.1866 -170.8734 -144.3498 53.2220 176.8597 -2.8344 -20.7288 -33.2636 -126.8494 6.9129 -89.4842 12.1317 4.2727 -64.1011 -0.1982 0.8722 0.5826 -2.5849 8.1856 32.8238 -50.0819 -21.0657 155.0054 11.1916 3.2759 104.7187 -0.1787 -0.8606 -0.0686 -30.5729 15.9395 87.6055 -3.8814 47.5843 -11.3510 -4.2004 -3.6908 -0.4418 4.2989 -11.7385 1.1859 -56.9823 -9.4426 76.1688 2.7539 42.8429 8.4155 -13.9718 -11.5815 -0.4242 2.4522 -27.7788 -17.4785 
0.0000 93.1000 0.0000 -66.0232 -45.8569 -158.1807 -71.2633 -0.5530 87.6568 83.0636 71.0706 12.5313 5.8226 21.8329 -1.7755 -135.8478 17.7074 -168.4500 -143.3739 52.0841 177.2821 -2.4119 -20.8374 -34.3221 -128.9897 3.2744 -84.3526 10.4515 5.7573 -61.0201 -0.1729 0.6216 -0.3911 -2.1801 7.6939 32.4689 -48.8708 -18.5276 155.3637 8.0571 2.2180 104.7916 0.0063 -0.6163 0.0647 -32.0158 17.9686 88.0221 -3.7944 49.6890 -5.0208 -2.9246 -3.7219 -1.0116 4.1111 -8.7953 -2.6285 -55.2836 -9.1448 77.2828 0.5873 42.3172 -0.3745 -15.6078 -18.5612 0.7778 1.2193 -21.1179 0.6141 
0.0000 93.1000 0.0000 -68.1011 -42.9431 -161.0606 -71.2038 -0.0742 87.6937 84.0564 70.7395 8.7090 6.8971 20.7672 -0.7666 -135.6640 16.0346 -167.5094 -142.0820 50.1360 175.9188 -1.9831 -21.2942 -35.2343 -131.2307 0.7883 -82.2883 8.3588 4.9373 -58.5159 -0.4824 0.1875 -0.0486 -2.3185 7.1541 35.8421 -49.2238 -15.2173 152.2795 8.5461 2.0386 104.2130 0.0083 -0.0622 -0.0617 -31.2395 18.8241 89.7129 -4.1278 50.7441 -3.7627 -2.3823 -4.5420 -0.8587 3.5934 -9.1853 -1.1909 -51.4668 -9.2131 81.6066 1.7857 46.3922 -2.9508 -19.1164 -18.8759 1.3654 1.4072 -23.7081 0.2255 
0.0000 93.1000 0.0000 -70.1169 -41.7782 -164.9266 -71.1603 0.7130 87.5699 90.2684 70.0260 2.5890 7.5294 20.3987 -1.3755 -134.9964 14.9975 -167.5740 -140.5190 49.1982 176.2696 -1.5161 -20.9787 -36.0078 -133.0107 -0.8132 -79.9892 7.8781 5.3581 -56.7231 0.2037 0.0382 -0.1813 -1.9000 6.9633 38.5444 -49.0937 -13.5083 149.4869 8.0738 1.8219 104.5523 0.5419 0.1235 0.3121 -32.7882 19.4827 93.1452 -4.6883 51.8994 -4.1023 -2.0317 -6.2049 -1.4370 3.1849 -7.1989 -1.0736 -50.1586 -10.7654 82.7678 1.6373 49.8933 -3.0567 -18.9977 -19.9053 2.0267 3.3405 -24.3856 -1.0734 
0.0000 93.1000 0.0000 -70.0132 -41.1619 -165.0437 -71.3780 0.0568 87.5287 88.0643 70.1580 3.5520 7.7693 20.0978 -1.6586 -135.0357 15.1881 -167.3693 -139.9644 48.0756 175.3061 -2.0037 -21.3904 -37.8384 -133.2876 -1.9897 -79.0466 8.5619 6.0409 -54.9734 0.3769 0.0218 -0.1999 -2.2972 7.2971 37.9222 -47.8767 -15.6284 148.5207 7.6686 1.9920 103.8480 0.1666 0.0865 0.0140 -33.0446 21.0844 95.4544 -4.7165 52.9316 -4.7217 -1.6996 -6.8479 -1.0138 2.9523 -7.7974 -0.9859 -50.1037 -11.1144 84.2015 1.7020 50.4553 -0.1978 -19.4719 -19.1785 1.1569 2.5003 -24.5779 -3.9659 
0.0000 93.1000 0.0000 -70.2808 -40.1440 -164.8207 -71.4343 -0.3563 87.8627 88.0887 70.0686 5.0084 8.6553 18.9495 -1.7713 -137.1487 15.0795 -165.4653 -142.1285 47.9657 177.8752 -2.1717 -20.8206 -38.0807 -134.5362 -2.0444 -79.1497 8.0519 5.9430 -53.8464 0.0930 0.1014 -0.2773 -2.5243 7.6555 37.5481 -47.1974 -16.9212 148.3551 7.2637 1.9268 103.6681 0.0718 0.0085 -0.0678 -32.0873 22.9991 97.3408 -4.6970 53.0284 -6.9139 -0.9040 -6.8988 -0.7512 2.9583 -7.1887 -0.7530 -49.2003 -10.1682 85.1977 1.9357 51.3862 0.1205 -19.1704 -19.1859 0.5439 2.1591 -23.5607 -4.0803 
0.0000 93.1000 0.0000 -71.1672 -41.3133 -165.9129 -71.3542 0.0526 87.7433 92.2121 69.2107 0.0067 7.8953 18.7404 -1.9085 -137.1863 14.9467 -165.6559 -141.4785 46.9346 175.8582 -2.0025 -21.0145 -38.0022 -133.1802 -1.7819 -79.2922 7.6586 5.8682 -53.0237 0.0886 0.1610 -0.3650 -2.1266 8.0616 37.8865 -47.0190 -17.4014 148.4703 7.0771 1.3724 103.8705 0.0837 -0.0635 0.3740 -32.8493 22.7962 99.4325 -4.7015 53.7817 -6.9436 -1.1190 -6.9147 -1.1675 3.1135 -7.4290 -2.3400 -48.3798 -11.8356 85.9957 3.0415 53.6077 1.0303 -15.9668 -20.0014 0.8323 1.9995 -22.8876 -6.7560 
0.0000 93.1000 0.0000 -69.6553 -40.9818 -165.9787 -71.1173 0.0071 87.8542 91.1385 69.1909 0.0018 7.1559 18.8663 -1.1701 -137.2503 14.1047 -163.9700 -143.5292 46.7367 179.0746 -2.0823 -20.9883 -38.7195 -132.9577 -2.1360 -79.3923 8.3142 6.3252 -51.9883 -0.0711 0.2007 0.1205 -2.1735 8.1972 36.9556 -46.6647 -17.2995 148.5537 7.8763 2.1711 103.8525 0.0693 -0.0585 0.0696 -33.3715 21.9378 99.1740 -4.8650 52.8790 -7.1723 -1.4021 -6.9917 -1.0897 2.8518 -7.2716 -0.6307 -48.0086 -12.2700 86.0549 2.4036 53.0322 2.3535 -16.0518 -18.9951 0.8222 2.2880 -22.8064 -8.6993 
0.0000 93.1000 0.0000 -69.8309 -40.1550 -167.1822 -71.2967 -0.1072 87.9528 92.1272 69.4243 1.1460 6.8938 19.9487 -1.8279 -137.1496 14.0415 -165.1839 -142.3656 46.9014 178.1095 -2.2386 -21.0160 -39.1905 -133.0781 -2.7367 -79.2604 9.5322 8.0097 -51.1630 -0.2573 0.2378 0.2150 -2.3528 8.1405 37.8365 -47.4988 -17.4147 148.3305 8.9424 2.0531 103.8751 0.3390 -0.1221 -0.1990 -33.0684 22.3387 100.2521 -4.9474 53.2045 -7.0042 0.0447 -6.5658 -1.1585 2.7255 -6.9047 -0.7928 -46.8655 -12.0754 87.0427 2.4865 53.1488 0.3167 -16.2441 -18.9666 0.8018 1.8186 -23.6711 -6.1587 
0.0000 93.1000 0.0000 -70.2055 -40.0278 -167.1366 -71.3830 -2.1312 87.9656 91.6681 70.2389 0.6208 6.6795 20.0583 -3.4811 -138.3839 14.4927 -165.2150 -143.7387 47.3635 178.1259 -3.4953 -21.1853 -39.2627 -132.1934 -1.9490 -80.1982 10.9875 8.4603 -50.7952 -1.1094 0.3089 0.8988 -4.0608 8.4519 38.0159 -47.5424 -18.4035 147.1445 9.6971 2.2197 104.3209 -1.0574 -0.2622 -1.1915 -33.9110 22.5909 101.5567 -5.1681 52.8848 -6.9677 -0.4046 -6.8607 0.4429 3.0028 -6.1609 -2.2716 -47.0068 -11.5180 87.9428 2.6704 53.1227 -0.0883 -16.3340 -18.9421 -1.5728 0.9178 -23.3857 -7.9172 
0.0000 93.1000 0.0000 -69.1187 -41.0152 -167.3631 -70.8528 0.7567 87.4634 92.2690 70.4678 0.6201 6.7609 19.9615 -2.2967 -138.0685 14.3024 -163.9063 -144.5366 47.7604 -179.2116 -1.9592 -20.4053 -38.8221 -132.3316 -1.5197 -80.9988 9.1605 7.6049 -50.0307 0.8552 0.7418 -0.5534 -1.2370 7.5099 36.9206 -47.8152 -18.8971 148.2436 7.9913 1.9752 103.7904 1.8166 -0.7879 1.1788 -33.5073 21.8745 101.9937 -4.4207 51.8599 -7.0341 0.0125 -6.5568 -2.8251 2.7102 -7.0430 -2.2986 -45.7022 -13.2492 88.1798 2.7951 53.4204 0.1230 -16.2246 -18.6263 2.7863 3.4851 -24.6554 -6.7749 
0.0000 93.1000 0.0000 -69.0215 -41.2931 -166.9324 -71.4482 0.0515 87.9593 90.9798 69.9198 1.3468 6.3866 20.0162 -3.0289 -137.2297 14.6057 -165.4275 -143.0888 47.5065 177.1515 -2.3314 -21.6967 -39.0543 -131.2709 -1.9826 -81.3675 9.0178 8.1028 -50.0831 -0.3646 0.1534 0.0898 -2.2676 8.1962 36.8589 -48.1758 -18.5406 147.5732 8.3532 2.0980 104.3483 0.1800 -0.1147 0.2188 -33.7639 21.0868 102.3522 -4.9018 51.9235 -8.0263 -0.1726 -6.2537 -1.3491 2.7268 -6.7609 -0.9321 -46.2128 -12.6713 88.1849 2.4410 51.9058 -1.7111 -16.3304 -18.0438 1.2135 1.5069 -24.2998 -5.0693 
0.0000 93.1000 0.0000 -69.0390 -41.1222 -167.1685 -71.3693 -0.2529 87.9822 90.9611 70.1863 1.3183 6.9458 20.2215 -2.8905 -138.1530 14.3267 -164.0988 -144.5927 47.6753 177.6906 -2.5896 -21.9478 -39.1650 -131.1546 -2.0149 -81.2897 9.1050 8.1261 -50.0768 -0.1156 0.1477 0.2698 -2.4605 7.9659 36.9852 -48.2888 -19.1832 148.3448 8.7396 1.9381 104.0930 -0.2103 -0.0869 -0.0678 -34.1804 20.8938 102.5360 -5.0099 52.0565 -8.3049 -0.1289 -5.6948 -0.9601 3.0413 -6.6245 -2.1170 -47.3991 -13.0602 88.3666 2.8034 52.1564 0.0452 -16.2248 -17.9831 0.8656 2.3073 -24.7679 -6.3842 
0.0000 93.1000 0.0000 -68.8443 -41.7315 -165.9380 -71.4235 -0.5165 87.9160 90.2386 70.1447 2.1484 6.6749 20.1360 -3.4066 -137.4198 14.2831 -165.9071 -143.7029 47.2251 175.9169 -2.9477 -21.9694 -38.8722 -131.3420 -2.0536 -81.5147 8.8223 7.9589 -50.0936 0.2676 0.2876 0.2250 -2.5398 7.6225 37.1060 -48.1459 -19.1621 147.3721 8.0520 1.7415 104.8978 0.0267 -0.2509 -0.0216 -33.9754 21.2411 102.1570 -5.0451 51.6573 -8.2646 0.2955 -5.8105 -1.1136 2.8430 -6.8777 -1.8411 -47.2680 -13.0277 87.4364 3.0972 51.1086 0.1026 -15.0091 -18.6613 0.7378 1.8668 -23.6356 -6.1927 
0.0000 93.1000 0.0000 -67.8792 -41.9349 -165.9521 -71.4281 -0.0748 87.7822 90.0147 70.5484 3.0989 6.8125 20.6890 -3.7996 -136.2408 14.0662 -167.9196 -140.7960 47.0257 173.9943 -2.7108 -22.0102 -38.9823 -131.0031 -1.8500 -82.0653 8.9566 7.7565 -50.1680 0.0173 0.1607 0.1287 -2.3108 7.3399 38.6297 -49.0226 -18.2649 146.3254 8.1910 2.2591 104.8696 0.1654 -0.1040 0.1224 -33.8149 20.9577 102.2281 -4.4219 52.1750 -9.1974 0.1334 -5.7391 -1.2722 2.8848 -7.0236 -2.0715 -48.1063 -13.1890 87.1884 3.0382 51.3709 0.0459 -14.9169 -18.8698 1.2792 1.7212 -24.1783 -4.6767 
0.0000 93.1000 0.0000 -68.9924 -42.0766 -166.0822 -71.1956 -0.3683 87.5990 92.8703 71.0950 0.3943 5.4698 21.1189 -2.7548 -136.2338 14.2393 -166.8532 -141.9423 47.3167 175.4606 -3.0521 -21.9340 -39.3000 -131.3007 -1.0715 -82.0934 9.2799 8.2804 -50.5098 -0.0773 0.3374 -0.0913 -2.3252 7.1366 38.2973 -48.2044 -18.0158 146.0724 8.0794 2.2263 104.9775 -0.3518 -0.3983 -0.2852 -34.4007 21.2849 102.4837 -4.9097 51.8830 -9.1376 -0.2664 -5.7759 -1.3303 3.0659 -7.0176 -1.4734 -48.2990 -12.8880 87.3854 2.8976 51.0497 -0.0478 -15.2542 -17.9703 1.1362 1.9575 -24.4492 -6.7759 
0.0000 93.1000 0.0000 -67.8506 -41.9429 -166.2824 -71.1687 -0.1371 87.6219 91.9988 71.2768 1.0510 5.6684 21.0370 -2.9962 -137.2216 14.0776 -166.7448 -143.7097 47.0263 177.0122 -2.8919 -22.0054 -39.1956 -130.4363 -1.0146 -82.0246 9.0047 7.8282 -50.3474 -0.2562 0.5601 -0.0642 -1.8733 6.7904 37.8540 -48.2658 -18.4342 146.2395 8.3677 1.9696 105.0418 0.2625 -0.6107 0.3231 -33.3427 20.9509 102.6399 -4.7959 51.8595 -9.2353 -0.3966 -6.0146 -1.6592 2.4128 -7.1595 -1.2928 -48.2196 -13.1635 87.1548 1.7096 51.4506 -1.1576 -15.1236 -17.7666 1.4382 2.6606 -25.0699 -6.1496 
